<?xml version="1.0" encoding="utf-8"?>
<!-- Generator: Adobe Illustrator 24.2.3, SVG Export Plug-In . SVG Version: 6.00 Build 0)  -->
<svg version="1.1" id="Layer_1" xmlns="http://www.w3.org/2000/svg" xmlns:xlink="http://www.w3.org/1999/xlink" x="0px" y="0px"
	 viewBox="0 0 900 900" style="enable-background:new 0 0 900 900;" xml:space="preserve">
<style type="text/css">
	.st0{fill:#3E3E40;}
</style>
<g transform="translate(0.000000,900.000000) scale(0.100000,-0.100000)">
	<path class="st0" d="M6430,5735v-525h115h115v195c0,218,7,253,59,279c34,18,84,21,112,6c43-24,49-57,49-275v-205h116h115l-3,253
		c-3,238-4,254-25,294c-72,134-271,165-386,59l-37-34v239v239h-115h-115V5735z"/>
	<path class="st0" d="M5990,5960v-100h-40h-40v-95v-95h40h40v-230v-230h115h115v230v230h65h65v95v95h-65h-65v100v100h-115h-115V5960
		z"/>
	<path class="st0" d="M7475,5866c-106-26-185-89-227-181c-19-42-23-67-23-150c0-89,3-106,28-157c54-110,159-173,306-185
		c135-10,260,38,323,126c15,21,30,49,33,64l7,27h-111c-97,0-111-2-120-19c-16-28-65-44-122-39c-65,7-108,45-116,106l-6,42h243h243
		l-5,73c-5,76-37,158-81,205C7770,5861,7609,5899,7475,5866z M7687,5687c18-20,33-41,33-47s-50-10-135-10c-124,0-134,1-128,18
		c19,54,73,84,142,79C7646,5724,7658,5718,7687,5687z"/>
	<path class="st0" d="M6560,4910v-100h650h650v100v100h-650h-650V4910z"/>
	<path class="st0" d="M3950,3615v-525h115h115v131v132l126-132l126-131h161h162l-174,174l-174,175l74,69c41,38,113,104,161,148
		l87,79l-157,3l-156,3l-118-118l-118-118v318v317h-115h-115V3615z"/>
	<path class="st0" d="M5320,3911v-230l-56,34c-66,40-139,52-214,36c-312-67-354-510-61-652c36-18,64-23,126-23c86,0,126,14,178,62
		l27,26v-37v-37h115h115v525v525h-115h-115V3911z M5245,3546c47-20,75-69,75-131c0-89-56-145-145-145c-88,0-145,56-145,144
		C5030,3527,5135,3592,5245,3546z"/>
	<path class="st0" d="M2605,3746c-106-26-185-89-227-181c-19-42-23-67-23-150c0-89,3-106,28-157c54-110,159-173,306-185
		c135-10,260,38,323,126c15,21,30,49,33,64l7,27h-111c-97,0-111-2-120-19c-16-28-65-44-122-39c-65,7-108,45-116,106l-6,42h243h243
		l-5,73c-5,76-37,158-81,205C2900,3741,2739,3779,2605,3746z M2817,3567c18-20,33-41,33-47s-50-10-135-10c-124,0-134,1-128,18
		c19,54,73,84,142,79C2776,3604,2788,3598,2817,3567z"/>
	<path class="st0" d="M3385,3746c-106-26-185-89-227-181c-19-42-23-67-23-150c0-89,3-106,28-157c54-110,159-173,306-185
		c135-10,260,38,323,126c15,21,30,49,33,64l7,27h-111c-97,0-111-2-120-19c-16-28-65-44-122-39c-65,7-108,45-116,106l-6,42h243h243
		l-5,73c-5,76-37,158-81,205C3680,3741,3519,3779,3385,3746z M3597,3567c18-20,33-41,33-47s-50-10-135-10c-124,0-134,1-128,18
		c19,54,73,84,142,79C3556,3604,3568,3598,3597,3567z"/>
	<path class="st0" d="M5880,3747c-94-26-163-88-209-187c-22-46-26-69-26-145s4-99,27-146c35-76,85-129,155-164c49-25,70-29,138-29
		c86,0,126,14,178,62l27,26v-37v-37h115h115v325v325h-115h-115v-32c0-29-1-30-17-16C6091,3747,5966,3772,5880,3747z M6100,3542
		c69-35,99-148,54-210c-61-82-204-81-255,2c-26,42-25,119,1,161C5938,3556,6029,3578,6100,3542z"/>
	<path class="st0" d="M7587,3750c-138-35-219-151-187-269c17-65,55-95,152-121c46-12,93-28,106-36c47-31,11-84-58-84
		c-29,0-78,17-165,56c-5,2-28-30-49-72c-46-90-47-88,63-126c84-29,221-31,296-5c137,47,203,184,145,301c-26,54-70,82-160,102
		c-103,23-132,51-92,87c23,21,82,21,137,2c21-8,40-13,41-12s19,33,39,71c42,75,41,77-25,96C7780,3755,7632,3761,7587,3750z"/>
	<path class="st0" d="M1212,3415l170-326l75,3l75,3l75,165c41,91,78,168,82,173c4,4,43-71,86-168l79-175h76h75l52,103
		c29,56,104,202,168,325l116,222h-126h-126l-47-102c-26-57-63-136-82-177l-36-74l-81,174l-81,174l-69,3l-68,3l-79-171
		c-44-93-82-170-86-170s-42,77-85,170l-78,170h-127h-127L1212,3415z"/>
	<path class="st0" d="M6617,3463c86-153,156-282,156-288c0-5-48-99-107-207c-58-108-106-200-106-203s57-4,127-3l128,3l257,484
		c142,267,258,486,258,488s-58,3-129,3h-128l-84-164c-46-90-87-162-91-160c-4,3-44,77-89,164l-81,160h-133h-133L6617,3463z"/>
</g>
</svg>
